<svg aria-labelledby="sporticons-archery-icon" role="img" viewBox="0 0 512 512" xmlns="http://www.w3.org/2000/svg"><title id="sporticons-archery-icon">Archery</title><path d="m230.421 118.43c10.614 0 19.675-3.751 27.183-11.254 7.508-7.502 11.262-16.745 11.262-27.728 0-10.625-3.754-19.689-11.262-27.192-7.508-7.502-16.569-11.253-27.183-11.254-10.614 0-19.768 3.752-27.46 11.254-7.693 7.503-11.539 16.567-11.539 27.192 0 10.983 3.846 20.226 11.539 27.728 7.692 7.503 16.846 11.254 27.46 11.254l0 0zm25.809 24.167c-1.464 8.056-6.587 12.084-15.368 12.083l-91.723 0c-10.983 0-16.474-4.759-16.474-14.279 0-4.033 1.285-7.329 3.855-9.888-6.961 2.559-10.441 7.134-10.441 13.726 0 9.519 5.676 14.279 17.027 14.279l96.097 0c12.089 0 17.764-5.307 17.027-15.921l0 0zm-107.091 12.083 91.723 0c8.782 0 13.904-4.028 15.368-12.083-.369-9.519-6.045-14.279-17.027-14.279l-96.097 0c-.369 0-2.564.732-6.586 2.195-2.57 2.559-3.855 5.855-3.855 9.888 0 9.52 5.491 14.279 16.474 14.279l0 0zm129.615-26.362 87.315-87.868c21.597 25.262 33.859 54.551 36.786 87.868l-124.102 0zm87.315 116.979c-18.313-18.312-44.49-44.49-78.533-78.533l0-8.246 115.32 0c-3.296 32.591-15.558 61.517-36.786 86.779l0 0zm-120.817 56.009 0-1.642c0 0 0 .179 0 .536l0 1.106zm-1.106 10.977 0-1.642c0 .369 0 .553 0 .553l0 1.089zm128.509-292.699-110.929 110.376c.357.369 .72.738 1.089 1.106 1.463 2.928 2.564 6.224 3.302 9.888.368 3.654-.548 7.86-2.748 12.62 0 .738-.369 1.654-1.106 2.749-5.117 7.687-12.804 11.531-23.061 11.53l-52.724 0 0 141.682 0 0-30.2 150.48c-1.095 5.854.005 11.254 3.302 16.198 3.296 4.944 7.871 7.963 13.726 9.058 5.854 1.095 11.254-.003 16.198-3.293 4.944-3.29 8.148-7.868 9.611-13.734l30.753-155.961 14.279 0 0 0 30.753 155.961c1.095 5.866 4.114 10.444 9.058 13.734 4.944 3.29 10.527 4.388 16.751 3.293 5.497-1.095 9.983-4.114 13.458-9.058 3.474-4.944 4.48-10.343 3.017-16.198l-30.2-151.57 0-126.867 85.673 85.12 7.139-7.676c28.557-31.485 42.836-70.109 42.836-115.873 0-45.406-14.464-84.03-43.389-115.873 0 0-2.196-2.564-6.586-7.692l0 0zm-127.403 281.722 0-1.106c0 0 0-.179 0-.536l0 1.642z"/></svg>
