<svg aria-labelledby="sporticons-badmington-icon" role="img" viewBox="0 0 512 512" xmlns="http://www.w3.org/2000/svg"><title id="sporticons-badmington-icon">Badmington</title><path d="M146.286 0A146.286 146.286 0 0 0 0 146.286 146.286 146.286 0 0 0 146.286 292.571L266.714 292.571 480.786 506.643C487.949 513.806 499.48 513.806 506.643 506.643 513.806 499.48 513.806 487.949 506.643 480.786L292.571 266.714 292.571 182.857 292.571 146.286A146.286 146.286 0 0 0 146.286 0zM146.286 36.571A109.714 109.714 0 0 1 155.929 37.071 109.714 109.714 0 0 1 159.857 37.571 109.714 109.714 0 0 1 167.143 38.643 109.714 109.714 0 0 1 170.5 39.429 109.714 109.714 0 0 1 177.643 41.214 109.714 109.714 0 0 1 181.214 42.429 109.714 109.714 0 0 1 187.857 44.786 109.714 109.714 0 0 1 191.929 46.643 109.714 109.714 0 0 1 197.643 49.429 109.714 109.714 0 0 1 202.429 52.143 109.714 109.714 0 0 1 206.571 54.714 109.714 109.714 0 0 1 212 58.571 109.714 109.714 0 0 1 215.429 61.143 109.714 109.714 0 0 1 220.286 65.429 109.714 109.714 0 0 1 223.786 68.786 109.714 109.714 0 0 1 227.143 72.286 109.714 109.714 0 0 1 231.429 77.143 109.714 109.714 0 0 1 234 80.571 109.714 109.714 0 0 1 237.857 86 109.714 109.714 0 0 1 240.429 90.143 109.714 109.714 0 0 1 243.143 94.929 109.714 109.714 0 0 1 245.929 100.643 109.714 109.714 0 0 1 247.786 104.714 109.714 109.714 0 0 1 250.143 111.357 109.714 109.714 0 0 1 251.357 114.929 109.714 109.714 0 0 1 253.143 122.071 109.714 109.714 0 0 1 253.929 125.429 109.714 109.714 0 0 1 255 132.714 109.714 109.714 0 0 1 255.5 136.643 109.714 109.714 0 0 1 256 146.286L256 167.714 167.714 256 146.286 256A109.714 109.714 0 0 1 136.643 255.5 109.714 109.714 0 0 1 132.714 255 109.714 109.714 0 0 1 125.429 253.929 109.714 109.714 0 0 1 122.071 253.143 109.714 109.714 0 0 1 114.929 251.357 109.714 109.714 0 0 1 111.357 250.143 109.714 109.714 0 0 1 104.714 247.786 109.714 109.714 0 0 1 100.643 245.929 109.714 109.714 0 0 1 94.929 243.143 109.714 109.714 0 0 1 90.143 240.429 109.714 109.714 0 0 1 86 237.857 109.714 109.714 0 0 1 80.571 234 109.714 109.714 0 0 1 77.143 231.429 109.714 109.714 0 0 1 72.286 227.143 109.714 109.714 0 0 1 68.786 223.786 109.714 109.714 0 0 1 65.429 220.286 109.714 109.714 0 0 1 61.143 215.429 109.714 109.714 0 0 1 58.571 212 109.714 109.714 0 0 1 54.714 206.571 109.714 109.714 0 0 1 52.143 202.429 109.714 109.714 0 0 1 49.429 197.643 109.714 109.714 0 0 1 46.643 191.929 109.714 109.714 0 0 1 44.786 187.857 109.714 109.714 0 0 1 42.429 181.214 109.714 109.714 0 0 1 41.214 177.643 109.714 109.714 0 0 1 39.429 170.5 109.714 109.714 0 0 1 38.643 167.143 109.714 109.714 0 0 1 37.571 159.857 109.714 109.714 0 0 1 37.071 155.929 109.714 109.714 0 0 1 36.571 146.286 109.714 109.714 0 0 1 37.071 136.643 109.714 109.714 0 0 1 37.143 135.357 109.714 109.714 0 0 1 37.571 132.714 109.714 109.714 0 0 1 38.643 125.429 109.714 109.714 0 0 1 39.429 122.071 109.714 109.714 0 0 1 41.214 114.929 109.714 109.714 0 0 1 42.429 111.357 109.714 109.714 0 0 1 44.786 104.714 109.714 109.714 0 0 1 46.643 100.643 109.714 109.714 0 0 1 49.429 94.929 109.714 109.714 0 0 1 52.143 90.143 109.714 109.714 0 0 1 54.714 86 109.714 109.714 0 0 1 58.286 81 109.714 109.714 0 0 1 61.5 76.786 109.714 109.714 0 0 1 64.786 73 109.714 109.714 0 0 1 68.857 68.714 109.714 109.714 0 0 1 72.286 65.429 109.714 109.714 0 0 1 77.143 61.143 109.714 109.714 0 0 1 80.571 58.571 109.714 109.714 0 0 1 86 54.714 109.714 109.714 0 0 1 90.143 52.143 109.714 109.714 0 0 1 94.929 49.429 109.714 109.714 0 0 1 99.929 47 109.714 109.714 0 0 1 105.429 44.5 109.714 109.714 0 0 1 109.857 42.929 109.714 109.714 0 0 1 115.143 41.143 109.714 109.714 0 0 1 122.071 39.429 109.714 109.714 0 0 1 125.429 38.643 109.714 109.714 0 0 1 132.714 37.571 109.714 109.714 0 0 1 136.643 37.071 109.714 109.714 0 0 1 146.286 36.571zM256 219.429 256 256 219.429 256 256 219.429zM73.143 347.429A36.571 36.571 0 0 0 36.571 384L109.714 384A36.571 36.571 0 0 0 73.143 347.429z"/><path d="m36.571 402.286h73.143l36.571 109.714H0Z"/></svg>
