<svg xmlns="http://www.w3.org/2000/svg" aria-labelledby="sporticons-baseball-ball" role="img" viewBox="0 0 512 512"><path d="m376.55078,363.89999l28.79999,-13.89999c11.10001,22.89999 26,43.20001 44.10001,60.89999c34,-42.5 54.5,-96.30002 54.5,-154.89999c0,-58.5 -20.39999,-112.2 -54.19998,-154.6c-17.80002,17.3 -32.60001,37.09998 -43.60001,59.49999l-28.70001,-14.09999c12.80002,-26 30,-49 50.80002,-69c-44.60001,-43.1 -105.20001,-69.8 -172.20001,-69.8c-66.89999,0 -127.5,26.6 -172.1,69.7c20.7,19.9 37.9,42.9 50.7,68.8l-28.7,14.10001c-11,-22.3 -25.7,-42.10001 -43.5,-59.40001c-34,42.5 -54.4,96.2 -54.4,154.8c0,58.60001 20.4,112.29999 54.4,154.70001c18.2,-17.70001 33.2,-38 44.3,-61l28.8,13.89999c-12.9,26.69998 -30.3,50.29999 -51.5,70.69998c44.5,43.10001 105.10001,69.70001 172,69.70001c66.79999,0 127.29999,-26.5 171.89999,-69.5c-21.10001,-20.40002 -38.5,-43.90002 -51.39999,-70.60001zm-228.3,-32l-30.50001,-9.80002c14.9,-46.39999 12.7,-93.79999 -0.6,-133.99998l30.39999,-10c15,45.60001 18,99.90001 0.70001,153.8zm216.3,-153.39999l30.39999,10c-13.20001,40.10001 -15.5,87.5 -0.60001,134l-30.5,9.79999c-17.29999,-54 -14.29999,-108.29999 0.70001,-153.79999z"/></svg>
