<svg aria-labelledby="sporticons-billiard-ball-icon" role="img" viewBox="0 0 512 512" xmlns="http://www.w3.org/2000/svg"><title id="sporticons-billiard-ball-icon">Billiard ball</title><path d="M256 0A256 256 0 0 0 0 256 256 256 0 0 0 256 512 256 256 0 0 0 512 256 256 256 0 0 0 256 0zM292.571 73.143A146.286 146.286 0 0 1 438.857 219.429 146.286 146.286 0 0 1 292.571 365.714 146.286 146.286 0 0 1 146.286 219.429 146.286 146.286 0 0 1 292.571 73.143zM292.571 109.714C280.447 109.714 269.81 112.054 260.643 116.786 251.475 121.419 244.384 128.067 239.357 136.643 234.33 145.12 231.786 154.977 231.786 166.214L231.786 171.357C231.786 180.032 234.037 188.328 238.571 196.214 243.204 204.002 249.338 209.931 256.929 214.071 247.958 218.902 240.779 226.108 235.357 235.571 230.034 245.035 227.357 255.112 227.357 265.857L227.357 269.429C227.357 281.356 230.034 291.86 235.357 300.929 240.779 309.899 248.428 316.786 258.286 321.714 268.143 326.643 279.559 329.143 292.571 329.143 305.583 329.143 317 326.643 326.857 321.714 336.715 316.786 344.32 309.899 349.643 300.929 355.064 291.86 357.786 281.356 357.786 269.429L357.786 265.857C357.786 255.112 355.02 245.079 349.5 235.714 344.078 226.251 336.855 219 327.786 214.071 335.475 210.03 341.581 204.145 346.214 196.357 350.946 188.57 353.357 180.229 353.357 171.357L353.357 166.214C353.357 154.977 350.813 145.12 345.786 136.643 340.758 128.067 333.667 121.419 324.5 116.786 315.332 112.054 304.696 109.714 292.571 109.714zM292.571 138.714C298.585 138.714 303.938 140.008 308.571 142.571 313.204 145.036 316.794 148.581 319.357 153.214 321.92 157.847 323.214 163.13 323.214 169.143L323.214 171.214C323.214 177.523 321.92 183.098 319.357 187.929 316.794 192.759 313.204 196.481 308.571 199.143 303.938 201.706 298.585 203 292.571 203 286.558 203 281.204 201.706 276.571 199.143 271.938 196.481 268.349 192.803 265.786 188.071 263.223 183.241 261.929 177.71 261.929 171.5L261.929 169.286C261.929 163.174 263.223 157.847 265.786 153.214 268.349 148.581 271.938 145.036 276.571 142.571 281.204 140.008 286.558 138.714 292.571 138.714zM292.571 232C299.57 232 305.748 233.383 311.071 236.143 316.394 238.903 320.498 242.758 323.357 247.786 326.314 252.714 327.786 258.538 327.786 265.143L327.786 267.214C327.786 273.72 326.314 279.473 323.357 284.5 320.498 289.429 316.394 293.24 311.071 296 305.748 298.76 299.57 300.143 292.571 300.143 285.573 300.143 279.394 298.804 274.071 296.143 268.748 293.383 264.6 289.572 261.643 284.643 258.784 279.714 257.357 274.006 257.357 267.5L257.357 265.286C257.357 258.681 258.784 252.813 261.643 247.786 264.6 242.758 268.748 238.903 274.071 236.143 279.394 233.383 285.573 232 292.571 232z"/></svg>
