<svg aria-labelledby="sporticons-bowling-ball-icon" role="img" viewBox="0 0 512 512" xmlns="http://www.w3.org/2000/svg"><title id="sporticons-bowling-ball-icon">Bowling ball</title><path d="m256,8c-137,0 -248,111 -248,248s111,248 248,248s248,-111 248,-248s-111,-248 -248,-248zm-128,184c-17.7,0 -32,-14.3 -32,-32s14.3,-32 32,-32s32,14.3 32,32s-14.3,32 -32,32zm64,-96c0,-17.7 14.3,-32 32,-32s32,14.3 32,32s-14.3,32 -32,32s-32,-14.3 -32,-32zm48,144c-17.7,0 -32,-14.3 -32,-32s14.3,-32 32,-32s32,14.3 32,32s-14.3,32 -32,32z"/></svg>
