<svg aria-labelledby="sporticons-canoe-icon" role="img" viewBox="0 0 512 512" xmlns="http://www.w3.org/2000/svg"><title id="sporticons-canoe-icon">Canoe</title><path d="M256 0C195.048 73.143 164.571 182.857 164.571 256 164.571 259.243 164.952 262.906 165.071 266.286L201.429 245.286A54.857 109.714 0 0 1 256 146.286 54.857 109.714 0 0 1 299.357 188.786L335.786 167.714C321.846 109.663 295.371 47.246 256 0zM475.286 87.214 411.929 123.786 389.357 157.857 104.357 322.429 63.5 324.929.143 361.5 36.714 424.786 100.071 388.214 122.643 354.143 407.643 189.571 448.5 187.071 511.857 150.5 475.286 87.214zM346.929 245.714 310.571 266.714A54.857 109.714 0 0 1 256 365.714 54.857 109.714 0 0 1 212.643 323.286L176.214 344.286C190.154 402.337 216.629 464.754 256 512 316.952 438.857 347.429 329.143 347.429 256 347.429 252.757 347.048 249.094 346.929 245.714z"/></svg>
