<svg aria-labelledby="sporticons-chess-icon" role="img" viewBox="0 0 512 512" xmlns="http://www.w3.org/2000/svg"><title id="sporticons-chess-icon">Chess</title><path d="M0 0 0 512 512 512 512 0 0 0zM109.714 36.571 182.857 36.571 182.857 109.714 256 109.714 256 36.571 329.143 36.571 329.143 109.714 402.286 109.714 402.286 36.571 475.429 36.571 475.429 109.714 402.286 109.714 402.286 182.857 475.429 182.857 475.429 256 402.286 256 402.286 329.143 475.429 329.143 475.429 402.286 402.286 402.286 402.286 475.429 329.143 475.429 329.143 402.286 256 402.286 256 475.429 182.857 475.429 182.857 402.286 109.714 402.286 109.714 475.429 36.571 475.429 36.571 402.286 109.714 402.286 109.714 329.143 36.571 329.143 36.571 256 109.714 256 109.714 182.857 36.571 182.857 36.571 109.714 109.714 109.714 109.714 36.571zM109.714 109.714 109.714 182.857 182.857 182.857 182.857 109.714 109.714 109.714zM182.857 182.857 182.857 256 256 256 256 182.857 182.857 182.857zM256 182.857 329.143 182.857 329.143 109.714 256 109.714 256 182.857zM329.143 182.857 329.143 256 402.286 256 402.286 182.857 329.143 182.857zM329.143 256 256 256 256 329.143 329.143 329.143 329.143 256zM329.143 329.143 329.143 402.286 402.286 402.286 402.286 329.143 329.143 329.143zM256 329.143 182.857 329.143 182.857 402.286 256 402.286 256 329.143zM182.857 329.143 182.857 256 109.714 256 109.714 329.143 182.857 329.143z"/></svg>
