<svg aria-labelledby="sporticons-dumbbell-icon" role="img" viewBox="0 0 512 512" xmlns="http://www.w3.org/2000/svg"><title id="sporticons-dumbbell-icon">Dumbbell</title><path d="m83.2 128-38.4 0c-10.64 0-19.2 8.56-19.2 19.2l0 83.2-19.2 0c-3.52 0-6.4 2.88-6.4 6.4l0 38.4c0 3.52 2.88 6.4 6.4 6.4l19.2 0 0 83.2c0 10.64 8.56 19.2 19.2 19.2l38.4 0c10.64 0 19.2-8.56 19.2-19.2l0-217.6c0-10.64-8.56-19.2-19.2-19.2zm422.4 102.4-19.2 0 0-83.2c0-10.64-8.56-19.2-19.2-19.2l-38.4 0c-10.64 0-19.2 8.56-19.2 19.2l0 217.6c0 10.64 8.56 19.2 19.2 19.2l38.4 0c10.64 0 19.2-8.56 19.2-19.2l0-83.2 19.2 0c3.52 0 6.4-2.88 6.4-6.4l0-38.4c0-3.52-2.88-6.4-6.4-6.4zm-140.8-153.6-38.4 0c-10.64 0-19.2 8.56-19.2 19.2l0 134.4-102.4 0 0-134.4c0-10.64-8.56-19.2-19.2-19.2l-38.4 0c-10.64 0-19.2 8.56-19.2 19.2l0 320c0 10.64 8.56 19.2 19.2 19.2l38.4 0c10.64 0 19.2-8.56 19.2-19.2l0-134.4 102.4 0 0 134.4c0 10.64 8.56 19.2 19.2 19.2l38.4 0c10.64 0 19.2-8.56 19.2-19.2l0-320c0-10.64-8.56-19.2-19.2-19.2z"/></svg>
