<svg aria-labelledby="sporticons-dumbbell-icon" role="img" viewBox="0 0 640 640" xmlns="http://www.w3.org/2000/svg"><title id="sporticons-dumbbell-icon">Dumbbell</title><path d="m104,160l-48,0c-13.3,0 -24,10.7 -24,24l0,104l-24,0c-4.4,0 -8,3.6 -8,8l0,48c0,4.4 3.6,8 8,8l24,0l0,104c0,13.3 10.7,24 24,24l48,0c13.3,0 24,-10.7 24,-24l0,-272c0,-13.3 -10.7,-24 -24,-24zm528,128l-24,0l0,-104c0,-13.3 -10.7,-24 -24,-24l-48,0c-13.3,0 -24,10.7 -24,24l0,272c0,13.3 10.7,24 24,24l48,0c13.3,0 24,-10.7 24,-24l0,-104l24,0c4.4,0 8,-3.6 8,-8l0,-48c0,-4.4 -3.6,-8 -8,-8zm-176,-192l-48,0c-13.3,0 -24,10.7 -24,24l0,168l-128,0l0,-168c0,-13.3 -10.7,-24 -24,-24l-48,0c-13.3,0 -24,10.7 -24,24l0,400c0,13.3 10.7,24 24,24l48,0c13.3,0 24,-10.7 24,-24l0,-168l128,0l0,168c0,13.3 10.7,24 24,24l48,0c13.3,0 24,-10.7 24,-24l0,-400c0,-13.3 -10.7,-24 -24,-24z"/></svg>
