<svg aria-labelledby="sporticons-football-ball-icon" role="img" viewBox="0 0 512 512" xmlns="http://www.w3.org/2000/svg"><title id="sporticons-football-ball-icon">Football ball</title><path d="M489.5 60.3c-4.8-18.2-19.1-32.5-37.3-37.4C428.3 16.5 391 8.9 347.4 8L504 164.8c-.8-43.5-8.2-80.6-14.5-104.5zm-467 391.4c4.8 18.2 19.1 32.5 37.3 37.4 23.9 6.4 61.2 14 104.8 14.9L8 347.2c.8 43.5 8.2 80.6 14.5 104.5zM12.2 283.4 228.4 500c132.5-19.4 248.8-118.7 271.5-271.4L283.6 12C151.1 31.4 34.8 130.7 12.2 283.4zm317.3-123.6c3.1-3.1 8.2-3.1 11.3 0l11.3 11.3c3.1 3.1 3.1 8.2 0 11.3l-28.3 28.3 28.3 28.3c3.1 3.1 3.1 8.2 0 11.3l-11.3 11.3c-3.1 3.1-8.2 3.1-11.3 0l-28.3-28.3-22.6 22.7 28.3 28.3c3.1 3.1 3.1 8.2 0 11.3l-11.3 11.3c-3.1 3.1-8.2 3.1-11.3 0L256 278.6l-22.6 22.6 28.3 28.3c3.1 3.1 3.1 8.2 0 11.3l-11.3 11.3c-3.1 3.1-8.2 3.1-11.3 0l-28.3-28.3-28.3 28.3c-3.1 3.1-8.2 3.1-11.3 0l-11.3-11.3c-3.1-3.1-3.1-8.2 0-11.3l28.3-28.3-28.3-28.2c-3.1-3.1-3.1-8.2 0-11.3l11.3-11.3c3.1-3.1 8.2-3.1 11.3 0l28.3 28.3 22.6-22.6-28.3-28.3c-3.1-3.1-3.1-8.2 0-11.3l11.3-11.3c3.1-3.1 8.2-3.1 11.3 0l28.3 28.3 22.6-22.6-28.3-28.3c-3.1-3.1-3.1-8.2 0-11.3l11.3-11.3c3.1-3.1 8.2-3.1 11.3 0l28.3 28.3 28.3-28.5z"/></svg>
