<svg aria-labelledby="sporticons-handball-icon" role="img" viewBox="0 0 512 512" xmlns="http://www.w3.org/2000/svg"><title id="sporticons-handball-icon">Handball</title><path d="M229.214 0A45.714 45.714 0 0 0 196.214 13.357 45.714 45.714 0 0 0 196.214 78.071 45.714 45.714 0 0 0 260.929 78.071 45.714 45.714 0 0 0 260.929 13.357 45.714 45.714 0 0 0 229.214 0zM153.929 62.357C143.798 62.357 135.643 70.513 135.643 80.643L135.643 151.643C135.579 152.102 135.67 152.54 135.643 153L135.643 153.786C135.643 153.912 135.712 154.017 135.714 154.143 135.733 156.407 136.139 158.561 137 160.643 137.114 160.926 137.301 161.153 137.429 161.429 138.212 163.08 139.211 164.569 140.5 165.929 141.135 166.631 141.835 167.189 142.571 167.786 143.181 168.253 143.602 168.891 144.286 169.286L224 215.357 178.429 294.286C178.383 294.362 178.33 294.423 178.286 294.5L68.571 484.571C63.506 493.345 66.513 504.435 75.286 509.5 84.059 514.565 95.221 511.63 100.286 502.857L182.571 360.286 187.857 363.357 187.929 363.357 230.071 387.714 190.571 456.071C185.506 464.845 188.513 476.006 197.286 481.071 206.059 486.137 217.221 483.13 222.286 474.357L270.857 390.214C275.922 381.441 272.916 370.279 264.143 365.214L232.5 346.929 287.357 251.929 418.786 327.786C427.235 332.664 437.979 329.806 442.857 321.357L443.5 320.143C448.378 311.694 445.52 301.021 437.071 296.143L279.286 205 268.714 198.929 172.214 143.214 172.214 80.643C172.214 70.513 164.059 62.357 153.929 62.357zM294 109.714A36.571 36.571 0 0 0 283.071 110.929 36.571 36.571 0 0 0 257.214 155.786 36.571 36.571 0 0 0 302.071 181.643 36.571 36.571 0 0 0 327.929 136.786 36.571 36.571 0 0 0 294 109.714z"/></svg>
