<svg aria-labelledby="sporticons-quidditch-icon" role="img" viewBox="0 0 512 512" xmlns="http://www.w3.org/2000/svg"><title id="sporticons-quidditch-icon">Quidditch</title><path d="m205.201 224.649 69.36 87.36s-13.28 81.92-61.28 120.08c-47.92 38.16-213.28 27.28-213.28 27.28s3.04-18.48 8.8-44.32l75.68-89.76c3.2-3.76-.72-9.28-5.28-7.6l-48.32 17.68c11.52-33.36 26.16-64 43.68-78 47.92-38.24 130.64-32.72 130.64-32.72zm190.4 108c-35.2 0-63.84 28.64-63.84 63.92 0 35.28 28.56 63.92 63.84 63.92 35.28 0 63.84-28.64 63.84-63.92 0-35.36-28.64-63.92-63.84-63.92zm113.6-256.64-15.84-20c-4.4-5.52-12.4-6.4-17.92-2.08l-186 142.32-27.28-34.4c-4.08-5.12-12.08-4.16-14.88 1.76l-20.24 43.68 69.36 87.36 47.04-9.92c6.4-1.36 9.12-8.96 5.04-14.08l-27.28-34.32 186-142.32c5.52-4.4 6.4-12.48 2-18z"/></svg>
