<svg aria-labelledby="sporticons-quidditch-icon" role="img" viewBox="0 0 640 640" xmlns="http://www.w3.org/2000/svg"><title id="sporticons-quidditch-icon">Quidditch</title><path d="m256.50116,280.81148l86.7,109.2s-16.6,102.4 -76.6,150.1c-59.9,47.7 -266.6,34.1 -266.6,34.1s3.8,-23.1 11,-55.4l94.6,-112.2c4,-4.7 -0.9,-11.6 -6.6,-9.5l-60.4,22.1c14.4,-41.7 32.7,-80 54.6,-97.5c59.9,-47.8 163.3,-40.9 163.3,-40.9zm238,135c-44,0 -79.8,35.8 -79.8,79.9c0,44.1 35.7,79.9 79.8,79.9c44.1,0 79.8,-35.8 79.8,-79.9c0,-44.2 -35.8,-79.9 -79.8,-79.9zm142,-320.8l-19.8,-25c-5.5,-6.9 -15.5,-8 -22.4,-2.6l-232.5,177.9l-34.1,-43c-5.1,-6.4 -15.1,-5.2 -18.6,2.2l-25.3,54.6l86.7,109.2l58.8,-12.4c8,-1.7 11.4,-11.2 6.3,-17.6l-34.1,-42.9l232.5,-177.9c6.9,-5.5 8,-15.6 2.5,-22.5z"/></svg>
