<svg aria-labelledby="sporticons-run-icon" role="img" viewBox="0 0 512 512" xmlns="http://www.w3.org/2000/svg"><title id="sporticons-run-icon">Run</title><path d="M392.714 0A46.5 46.178 0 0 0 346.214 46.143 46.5 46.178 0 0 0 392.714 92.357 46.5 46.178 0 0 0 439.214 46.143 46.5 46.178 0 0 0 392.714 0zM54.857 36.571C44.727 36.571 36.571 44.727 36.571 54.857 36.571 64.987 44.727 73.143 54.857 73.143L201.143 73.143C211.273 73.143 219.429 64.987 219.429 54.857 219.429 44.727 211.273 36.571 201.143 36.571L54.857 36.571zM356.071 107.071 228.643 135.429C223.131 136.655 219.122 141.824 215 146.857L186.714 195.571C182.215 199.748 179.927 205.002 179.929 211.286 179.928 217.148 181.82 222.174 185.571 226.357 189.32 230.539 193.815 232.643 199.071 232.643 204.693 232.643 209.582 230.091 213.714 225.071L246.571 170.071 300 161.071 189.214 332.857 99 307C91.867 307 85.307 308.402 80.429 313.429 75.552 318.453 70.643 322.913 70.643 330.857 70.643 338.392 73.695 344.983 78.571 350.214 83.449 355.446 88.29 358.242 94.857 359.929L193.214 385.143C197.231 386.175 206.132 385.258 209.5 384.429 218.132 382.756 220.622 378.761 224 374.571L270.571 297.929 329.071 360.714 305.429 478.071C304.673 480.589 304.286 482.684 304.286 484.357 304.286 491.892 306.765 498.416 311.643 503.857 316.52 509.298 322.314 512 329.071 512 341.825 512 349.702 504.65 352.714 490L381.429 347.5C384.807 332.428 383.307 321.329 376.929 314.214L325.714 257.143 381.429 184.929 417.429 225.071C421.183 229.248 425.55 231.357 430.429 231.357 436.806 231.357 443 228.199 449 221.929L507.5 156.643C510.499 152.453 511.998 147.877 512 142.857 511.997 136.587 510.011 131.333 506.071 127.143 502.134 122.954 497.54 120.857 492.286 120.857 487.029 120.857 482.927 122.51 479.929 125.857L431.5 179.929 373 114.643C368.5 109.61 362.68 105.601 356.071 107.071zM18.286 109.714C8.155 109.714 0 117.87 0 128 0 138.13 8.155 146.286 18.286 146.286L128 146.286C138.13 146.286 146.286 138.13 146.286 128 146.286 117.87 138.13 109.714 128 109.714L18.286 109.714zM54.857 182.857C44.727 182.857 36.571 191.013 36.571 201.143 36.571 211.273 44.727 219.429 54.857 219.429L91.429 219.429C101.559 219.429 109.714 211.273 109.714 201.143 109.714 191.013 101.559 182.857 91.429 182.857L54.857 182.857z"/></svg>
