<svg aria-labelledby="sporticons-shoot-icon" role="img" viewBox="0 0 512 512" xmlns="http://www.w3.org/2000/svg"><title id="sporticons-shoot-icon">Shoot</title><path d="M237.714 0 237.714 37.5A219.429 219.429 0 0 0 37.5 237.714L0 237.714 0 274.286 37.5 274.286A219.429 219.429 0 0 0 237.714 474.5L237.714 512 274.286 512 274.286 474.5A219.429 219.429 0 0 0 474.5 274.286L512 274.286 512 237.714 474.5 237.714A219.429 219.429 0 0 0 274.286 37.5L274.286 0 237.714 0zM274.286 74.071A182.857 182.857 0 0 1 437.786 237.714L329.143 237.714 329.143 274.286 437.929 274.286A182.857 182.857 0 0 1 274.286 437.786L274.286 329.143 237.714 329.143 237.714 437.929A182.857 182.857 0 0 1 74.214 274.286L182.857 274.286 182.857 237.714 74.071 237.714A182.857 182.857 0 0 1 237.714 74.214L237.714 182.857 274.286 182.857 274.286 74.071zM256 219.429A36.571 36.571 0 0 0 219.429 256 36.571 36.571 0 0 0 256 292.571 36.571 36.571 0 0 0 292.571 256 36.571 36.571 0 0 0 256 219.429z"/></svg>
