<svg aria-labelledby="sporticons-skateboard-icon" role="img" viewBox="0 0 512 512" xmlns="http://www.w3.org/2000/svg"><title id="sporticons-skateboard-icon">Skateboard</title><path d="M213 0A36.571 36.571 0 0 0 176.429 36.571 36.571 36.571 0 0 0 213 73.143 36.571 36.571 0 0 0 249.571 36.571 36.571 36.571 0 0 0 213 0zM225.071 88.286 150.929 93.429C149.82 93.505 148.894 94.019 147.857 94.286 146.146 94.444 144.413 94.574 142.714 95.286L74 124.071C64.934 127.872 60.281 138.379 63.571 147.643L64.143 149.286C67.434 158.549 77.434 162.943 86.5 159.143L155.214 130.286C155.574 130.135 155.797 129.814 156.143 129.643L195.929 126.929C195.986 127.98 195.564 128.937 195.714 130L211.071 238.643C211.844 244.111 213.907 248.95 216.714 253.286L174.5 330.643C174.225 331.147 174.223 331.698 174 332.214 173.205 333.787 172.696 335.402 172.429 337.143 172.392 337.435 172.38 337.707 172.357 338 172.156 339.991 172.314 341.93 172.857 343.929 172.963 344.343 173.08 344.737 173.214 345.143 173.469 345.859 173.497 346.591 173.857 347.286L220 436.357C220.674 437.659 221.708 438.603 222.643 439.643L156.5 477.857C147.727 482.922 144.721 494.084 149.786 502.857 154.851 511.63 166.013 514.565 174.786 509.5L459.857 344.929C468.63 339.863 471.565 328.773 466.5 320 461.435 311.227 450.345 308.221 441.571 313.286L368.429 355.5 368.143 276.214C368.108 268.06 362.64 261.484 355.286 259.143 355.15 259.094 355.066 258.975 354.929 258.929L283.143 234.786C283.22 232.645 283.811 230.627 283.5 228.429L269.286 128 304.714 130.214 365.571 164.643C374.108 169.465 384.892 166.465 389.714 157.929L390.286 156.857C395.108 148.32 392.108 137.608 383.571 132.786L318.857 96.214C318.358 95.932 317.799 95.943 317.286 95.714 314.937 94.332 312.288 93.33 309.357 93.143L233.5 88.286C232.112 88.197 230.819 88.576 229.5 88.786 228.048 88.515 226.617 88.179 225.071 88.286zM262 266.357 331.643 289.714 331.929 376.571 253.143 422.071C252.866 421.236 252.847 420.379 252.429 419.571L211.143 339.857 249.5 269.571C250.478 269.512 251.369 269.854 252.357 269.714 255.883 269.217 258.914 267.742 262 266.357zM415.429 384A18.286 18.286 0 0 0 397.143 402.286 18.286 18.286 0 0 0 415.429 420.571 18.286 18.286 0 0 0 433.714 402.286 18.286 18.286 0 0 0 415.429 384zM254.214 475.429A18.286 18.286 0 0 0 235.929 493.714 18.286 18.286 0 0 0 254.214 512 18.286 18.286 0 0 0 272.5 493.714 18.286 18.286 0 0 0 254.214 475.429z"/></svg>
